<svg width="42" height="42" viewBox="0 0 42 42" fill="none" xmlns="http://www.w3.org/2000/svg">
<g filter="url(#filter0_b_8_133)">
<rect width="42" height="42" rx="8" fill="#95A4BE" fill-opacity="0.4"/>
<g clip-path="url(#clip0_8_133)">
<path d="M17.0016 21.0002C17.0016 23.2081 18.7922 24.9987 21 24.9987C23.2078 24.9987 24.9984 23.2081 24.9984 21.0002C24.9984 18.7924 23.2078 17.0018 21 17.0018C18.7922 17.0018 17.0016 18.7924 17.0016 21.0002Z" fill="#95A4BE"/>
<path fill-rule="evenodd" clip-rule="evenodd" d="M16.0547 9.07031C17.3344 9.01406 17.7422 9 21 9C24.2578 9 24.6656 9.01406 25.95 9.075C27.225 9.13125 28.0969 9.3375 28.8609 9.63281C29.6484 9.9375 30.3188 10.35 30.9844 11.0156C31.6547 11.6813 32.0625 12.3516 32.3578 13.1484C32.6531 13.9078 32.8594 14.7844 32.9156 16.0594C32.9719 17.3391 32.9859 17.7469 32.9859 21.0047C32.9859 24.2625 32.9719 24.6703 32.9156 25.95C32.8594 27.225 32.6531 28.0969 32.3578 28.8609C32.0531 29.6484 31.6406 30.3188 30.975 30.9844C30.3094 31.65 29.6391 32.0625 28.8516 32.3672C28.0922 32.6625 27.2156 32.8687 25.9406 32.925C24.6609 32.9812 24.2531 32.9953 20.9953 32.9953C17.7375 32.9953 17.3297 32.9812 16.05 32.925C14.775 32.8687 13.9031 32.6625 13.1391 32.3672C12.3516 32.0625 11.6813 31.65 11.0156 30.9844C10.3453 30.3188 9.9375 29.6484 9.62813 28.8563C9.33281 28.0969 9.12656 27.2203 9.07031 25.9453C9.01406 24.6656 9 24.2578 9 21C9 17.7422 9.01406 17.3344 9.07031 16.05C9.12656 14.775 9.33281 13.9031 9.62813 13.1391C9.9375 12.3516 10.3453 11.6813 11.0156 11.0156C11.6813 10.3453 12.3516 9.9375 13.1438 9.62812C13.9031 9.33281 14.7797 9.12656 16.0547 9.07031ZM27.4078 16.0314C28.2 16.0314 28.8469 15.3893 28.8469 14.5924C28.8469 13.8002 28.2 13.1533 27.4078 13.1533C26.6156 13.1533 25.9688 13.7955 25.9688 14.5924C25.9688 15.3846 26.6109 16.0314 27.4078 16.0314ZM14.8359 21.0002C14.8359 17.5971 17.5969 14.8362 21 14.8362C24.4031 14.8362 27.1641 17.5971 27.1641 21.0002C27.1641 24.4034 24.4031 27.1643 21 27.1643C17.5969 27.1643 14.8359 24.4034 14.8359 21.0002Z" fill="#95A4BE"/>
</g>
</g>
<defs>
<filter id="filter0_b_8_133" x="-144" y="-144" width="330" height="330" filterUnits="userSpaceOnUse" color-interpolation-filters="sRGB">
<feFlood flood-opacity="0" result="BackgroundImageFix"/>
<feGaussianBlur in="BackgroundImageFix" stdDeviation="72"/>
<feComposite in2="SourceAlpha" operator="in" result="effect1_backgroundBlur_8_133"/>
<feBlend mode="normal" in="SourceGraphic" in2="effect1_backgroundBlur_8_133" result="shape"/>
</filter>
<clipPath id="clip0_8_133">
<rect width="24" height="24" fill="white" transform="translate(9 9)"/>
</clipPath>
</defs>
</svg>
