<svg width="158" height="46" viewBox="0 0 158 46" fill="none" xmlns="http://www.w3.org/2000/svg">
<path d="M15.8799 34.9492H8.91699V7.90625H0V2.11133H24.7969V7.90625H15.8799V34.9492Z" fill="#101828"/>
<path d="M37.7586 9.32129C41.1278 9.32129 43.7108 10.055 45.5077 11.5225C47.3045 12.9899 48.203 15.221 48.203 18.2158V34.9492H43.4188L42.0936 31.5352H41.9139C41.1952 32.4336 40.4614 33.1673 39.7127 33.7363C38.964 34.3053 38.103 34.7246 37.1297 34.9941C36.1564 35.2637 34.9735 35.3984 33.5809 35.3984C32.0985 35.3984 30.7658 35.1139 29.5829 34.5449C28.4149 33.9759 27.494 33.1074 26.8202 31.9395C26.1463 30.7565 25.8094 29.2591 25.8094 27.4473C25.8094 24.7819 26.7453 22.8203 28.617 21.5625C30.4888 20.2897 33.2964 19.5859 37.0399 19.4512L41.3973 19.3164V18.2158C41.3973 16.8981 41.0529 15.9323 40.3641 15.3184C39.6753 14.7044 38.717 14.3975 37.4891 14.3975C36.2762 14.3975 35.0858 14.5697 33.9178 14.9141C32.7498 15.2585 31.5819 15.6927 30.4139 16.2168L28.1454 11.5898C29.478 10.8861 30.9679 10.332 32.6151 9.92773C34.2772 9.52344 35.9917 9.32129 37.7586 9.32129ZM41.3973 23.3145L38.7469 23.4043C36.5308 23.4642 34.9885 23.861 34.12 24.5947C33.2664 25.3285 32.8397 26.2943 32.8397 27.4922C32.8397 28.5404 33.1467 29.2891 33.7606 29.7383C34.3745 30.1725 35.1756 30.3896 36.1639 30.3896C37.6314 30.3896 38.8667 29.9554 39.87 29.0869C40.8882 28.2184 41.3973 26.9831 41.3973 25.3809V23.3145Z" fill="#101828"/>
<path d="M60.2888 34.9492H53.4382V0H60.2888V34.9492Z" fill="#101828"/>
<path d="M72.5093 0V15.6328C72.5093 16.5762 72.4719 17.5195 72.397 18.4629C72.3221 19.4062 72.2398 20.3496 72.1499 21.293H72.2398C72.704 20.6341 73.1757 19.9827 73.6548 19.3389C74.149 18.695 74.673 18.0736 75.2271 17.4746L82.2574 9.83789H89.9839L80.0113 20.7314L90.5904 34.9492H82.6841L75.4517 24.7744L72.5093 27.1328V34.9492H65.6587V0H72.5093Z" fill="#101828"/>
<path d="M88.7504 9.83789H96.2523L100.992 23.9658C101.141 24.415 101.269 24.8717 101.373 25.3359C101.478 25.8001 101.568 26.2793 101.643 26.7734C101.718 27.2676 101.778 27.7842 101.823 28.3232H101.957C102.047 27.5146 102.167 26.7585 102.317 26.0547C102.481 25.3509 102.684 24.6546 102.923 23.9658L107.573 9.83789H114.917L104.293 38.1611C103.649 39.8981 102.811 41.3431 101.778 42.4961C100.745 43.6641 99.5541 44.54 98.2064 45.124C96.8737 45.708 95.4063 46 93.8041 46C93.0254 46 92.3516 45.9551 91.7826 45.8652C91.2136 45.7904 90.7269 45.708 90.3226 45.6182V40.1826C90.6371 40.2575 91.0339 40.3249 91.5131 40.3848C91.9922 40.4447 92.4939 40.4746 93.018 40.4746C93.9763 40.4746 94.7999 40.2725 95.4887 39.8682C96.1775 39.4639 96.754 38.9173 97.2181 38.2285C97.6823 37.5547 98.0492 36.8135 98.3187 36.0049L98.723 34.7695L88.7504 9.83789Z" fill="#101828"/>
<path d="M127.273 29.9404C128.021 29.9404 128.748 29.8656 129.451 29.7158C130.17 29.5661 130.881 29.3789 131.585 29.1543V34.2529C130.851 34.5824 129.938 34.8519 128.845 35.0615C127.767 35.2861 126.584 35.3984 125.296 35.3984C123.799 35.3984 122.451 35.1589 121.253 34.6797C120.07 34.1855 119.134 33.3395 118.446 32.1416C117.772 30.9287 117.435 29.2441 117.435 27.0879V14.9814H114.155V12.084L117.929 9.79297L119.905 4.49219H124.285V9.83789H131.316V14.9814H124.285V27.0879C124.285 28.0462 124.555 28.765 125.094 29.2441C125.648 29.7083 126.374 29.9404 127.273 29.9404Z" fill="#101828"/>
<path d="M157.889 9.83789V34.9492H152.633L151.712 31.7373H151.353C150.814 32.5908 150.14 33.2871 149.331 33.8262C148.523 34.3652 147.632 34.762 146.658 35.0166C145.685 35.2712 144.674 35.3984 143.626 35.3984C141.829 35.3984 140.264 35.084 138.932 34.4551C137.599 33.8112 136.558 32.8154 135.81 31.4678C135.076 30.1201 134.709 28.3682 134.709 26.2119V9.83789H141.56V24.5049C141.56 26.3018 141.882 27.6569 142.525 28.5703C143.169 29.4837 144.195 29.9404 145.603 29.9404C146.995 29.9404 148.088 29.626 148.882 28.9971C149.676 28.3532 150.23 27.4173 150.544 26.1895C150.873 24.9466 151.038 23.4342 151.038 21.6523V9.83789H157.889Z" fill="#101828"/>
</svg>
