<svg width="241" height="70" viewBox="0 0 241 70" fill="none" xmlns="http://www.w3.org/2000/svg">
<path d="M24.165 53.1836H13.5693V12.0312H0V3.21289H37.7344V12.0312H24.165V53.1836Z" fill="white"/>
<path d="M57.4588 14.1846C62.5858 14.1846 66.5164 15.3011 69.2508 17.5342C71.9852 19.7673 73.3524 23.1624 73.3524 27.7197V53.1836H66.0721L64.0555 47.9883H63.782C62.6883 49.3555 61.5718 50.472 60.4324 51.3379C59.2931 52.2038 57.9829 52.8418 56.5018 53.252C55.0206 53.6621 53.2205 53.8672 51.1014 53.8672C48.8455 53.8672 46.8175 53.4342 45.0174 52.5684C43.24 51.7025 41.8387 50.3809 40.8133 48.6035C39.7879 46.8034 39.2752 44.5247 39.2752 41.7676C39.2752 37.7116 40.6994 34.7266 43.5477 32.8125C46.396 30.8757 50.6684 29.8047 56.3651 29.5996L62.9959 29.3945V27.7197C62.9959 25.7145 62.4718 24.2448 61.4236 23.3105C60.3755 22.3763 58.9171 21.9092 57.0486 21.9092C55.2029 21.9092 53.3914 22.1712 51.6141 22.6953C49.8367 23.2194 48.0594 23.8802 46.282 24.6777L42.8299 17.6367C44.8579 16.5658 47.1251 15.7227 49.6316 15.1074C52.1609 14.4922 54.77 14.1846 57.4588 14.1846ZM62.9959 35.4785L58.9627 35.6152C55.5903 35.7064 53.2433 36.3102 51.9217 37.4268C50.6229 38.5433 49.9734 40.013 49.9734 41.8359C49.9734 43.431 50.4406 44.5703 51.3748 45.2539C52.3091 45.9147 53.5281 46.2451 55.032 46.2451C57.2651 46.2451 59.145 45.5843 60.6717 44.2627C62.2212 42.9411 62.9959 41.0612 62.9959 38.623V35.4785Z" fill="white"/>
<path d="M91.7438 53.1836H81.319V0H91.7438V53.1836Z" fill="white"/>
<path d="M110.34 0V23.7891C110.34 25.2246 110.283 26.6602 110.169 28.0957C110.055 29.5312 109.93 30.9668 109.793 32.4023H109.93C110.636 31.3997 111.354 30.4085 112.083 29.4287C112.835 28.4489 113.633 27.5033 114.476 26.5918L125.174 14.9707H136.932L121.756 31.5479L137.855 53.1836H125.824L114.818 37.7002L110.34 41.2891V53.1836H99.9155V0H110.34Z" fill="white"/>
<path d="M135.055 14.9707H146.471L153.683 36.4697C153.911 37.1533 154.104 37.8483 154.264 38.5547C154.423 39.2611 154.56 39.9902 154.674 40.7422C154.788 41.4941 154.879 42.2803 154.948 43.1006H155.153C155.289 41.8701 155.472 40.7194 155.699 39.6484C155.95 38.5775 156.258 37.5179 156.622 36.4697L163.698 14.9707H174.874L158.707 58.0713C157.727 60.7145 156.451 62.9134 154.879 64.668C153.307 66.4453 151.495 67.7783 149.445 68.667C147.417 69.5557 145.184 70 142.745 70C141.56 70 140.535 69.9316 139.669 69.7949C138.803 69.681 138.063 69.5557 137.447 69.4189V61.1475C137.926 61.2614 138.53 61.3639 139.259 61.4551C139.988 61.5462 140.752 61.5918 141.549 61.5918C143.007 61.5918 144.261 61.2842 145.309 60.6689C146.357 60.0537 147.234 59.222 147.941 58.1738C148.647 57.1484 149.205 56.0205 149.615 54.79L150.231 52.9102L135.055 14.9707Z" fill="white"/>
<path d="M193.676 45.5615C194.815 45.5615 195.92 45.4476 196.991 45.2197C198.085 44.9919 199.167 44.707 200.238 44.3652V52.124C199.122 52.6253 197.732 53.0355 196.068 53.3545C194.428 53.6963 192.628 53.8672 190.668 53.8672C188.389 53.8672 186.339 53.5026 184.516 52.7734C182.716 52.0215 181.291 50.7341 180.243 48.9111C179.218 47.0654 178.705 44.502 178.705 41.2207V22.7979H173.715V18.3887L179.457 14.9023L182.465 6.83594H189.13V14.9707H199.828V22.7979H189.13V41.2207C189.13 42.679 189.54 43.7728 190.36 44.502C191.204 45.2083 192.309 45.5615 193.676 45.5615Z" fill="white"/>
<path d="M240.266 14.9707V53.1836H232.267L230.866 48.2959H230.319C229.499 49.5947 228.474 50.6543 227.243 51.4746C226.013 52.2949 224.657 52.8988 223.176 53.2861C221.695 53.6735 220.156 53.8672 218.561 53.8672C215.827 53.8672 213.446 53.3887 211.418 52.4316C209.39 51.4518 207.806 49.9365 206.667 47.8857C205.55 45.835 204.992 43.1689 204.992 39.8877V14.9707H215.417V37.29C215.417 40.0244 215.907 42.0866 216.887 43.4766C217.866 44.8665 219.427 45.5615 221.569 45.5615C223.688 45.5615 225.352 45.083 226.559 44.126C227.767 43.1462 228.61 41.722 229.089 39.8535C229.59 37.9622 229.841 35.6608 229.841 32.9492V14.9707H240.266Z" fill="white"/>
</svg>
