<svg width="42" height="42" viewBox="0 0 42 42" fill="none" xmlns="http://www.w3.org/2000/svg">
<g filter="url(#filter0_b_8_139)">
<rect width="42" height="42" rx="8" fill="#95A4BE" fill-opacity="0.4"/>
<g clip-path="url(#clip0_8_139)">
<path d="M31.2234 9H10.7719C9.79219 9 9 9.77344 9 10.7297V31.2656C9 32.2219 9.79219 33 10.7719 33H31.2234C32.2031 33 33 32.2219 33 31.2703V10.7297C33 9.77344 32.2031 9 31.2234 9ZM16.1203 29.4516H12.5578V17.9953H16.1203V29.4516ZM14.3391 16.4344C13.1953 16.4344 12.2719 15.5109 12.2719 14.3719C12.2719 13.2328 13.1953 12.3094 14.3391 12.3094C15.4781 12.3094 16.4016 13.2328 16.4016 14.3719C16.4016 15.5062 15.4781 16.4344 14.3391 16.4344ZM29.4516 29.4516H25.8937V23.8828C25.8937 22.5562 25.8703 20.8453 24.0422 20.8453C22.1906 20.8453 21.9094 22.2937 21.9094 23.7891V29.4516H18.3563V17.9953H21.7687V19.5609H21.8156C22.2891 18.6609 23.4516 17.7094 25.1813 17.7094C28.7859 17.7094 29.4516 20.0813 29.4516 23.1656V29.4516Z" fill="#95A4BE"/>
</g>
</g>
<defs>
<filter id="filter0_b_8_139" x="-144" y="-144" width="330" height="330" filterUnits="userSpaceOnUse" color-interpolation-filters="sRGB">
<feFlood flood-opacity="0" result="BackgroundImageFix"/>
<feGaussianBlur in="BackgroundImageFix" stdDeviation="72"/>
<feComposite in2="SourceAlpha" operator="in" result="effect1_backgroundBlur_8_139"/>
<feBlend mode="normal" in="SourceGraphic" in2="effect1_backgroundBlur_8_139" result="shape"/>
</filter>
<clipPath id="clip0_8_139">
<rect width="24" height="24" fill="white" transform="translate(9 9)"/>
</clipPath>
</defs>
</svg>
